<svg width="190" height="45" viewBox="0 0 190 45" fill="none" xmlns="http://www.w3.org/2000/svg">
<circle cx="22.5" cy="22.5" r="22" fill="white" stroke="white"/>
<path fill-rule="evenodd" clip-rule="evenodd" d="M36.6224 16.8121C35.7098 17.4365 35.1313 18.1811 34.8965 19.0333C34.7596 19.53 34.7123 20.014 34.7956 20.0656C34.9236 20.1446 35.7884 19.6569 36.1957 19.2758C36.6371 18.8629 36.9824 18.2784 37.1381 17.6805C37.2387 17.2944 37.2696 16.4628 37.1834 16.4628C37.1557 16.4628 36.9033 16.62 36.6224 16.8121ZM35.1795 19.2461C35.1314 19.2096 35.3643 18.765 35.5057 18.6237C35.7512 18.378 35.7402 18.4346 35.4592 18.8636C35.316 19.082 35.1902 19.2541 35.1795 19.2461Z" fill="#4600E9"/>
<path d="M15.7287 23.1501C15.7158 23.163 15.4622 23.1438 15.1651 23.1075L14.6465 23.044C14.6326 23.0423 14.6198 23.0357 14.6104 23.0254L14.3181 22.7056C13.6821 22.0097 12.9895 21.7875 11.4512 21.7862C10.3169 21.7851 10.2804 21.7994 10.4717 22.1709C10.9414 23.0831 12.0039 23.6637 13.2037 23.6637C13.5259 23.6637 13.9429 23.6239 14.1305 23.5753C14.3273 23.5242 14.5124 23.5087 14.5682 23.5385C14.6213 23.567 15.0562 23.6561 15.5345 23.7366L16.4042 23.8829L15.7287 23.1501Z" fill="#4600E9"/>
<path fill-rule="evenodd" clip-rule="evenodd" d="M14.9755 13.3019C14.9758 12.9912 15.0132 12.6314 15.0586 12.5022C15.1041 12.3731 15.1654 12.2674 15.1948 12.2674C15.2885 12.2674 15.5133 12.6337 15.6474 13.0045C15.7857 13.3868 15.8392 14.4353 15.7389 14.7957L15.7147 14.8827C15.7029 14.925 15.6503 14.9397 15.6183 14.9096L15.5327 14.8292C15.151 14.4705 14.9752 13.795 14.9755 13.3019ZM32.4596 16.468C32.4835 16.3295 32.5881 16.2048 32.7919 15.9456C33.0021 15.6784 33.1959 15.4732 33.2226 15.4898C33.3012 15.5383 33.6517 16.515 33.7852 17.0576C33.9898 17.8888 34.0602 18.6202 34.0202 19.4997C33.9474 21.097 33.4157 22.5695 32.3109 24.233C31.7582 25.0652 30.9987 25.9615 29.4792 27.5745C27.9109 29.2394 27.7252 29.4444 27.2244 30.0652C25.7283 31.9201 24.9638 33.7269 24.9623 35.4119C24.9611 36.5983 25.3233 37.7996 26.0034 38.8652C26.1193 39.0468 26.214 39.2088 26.214 39.2253C26.214 39.2419 24.7489 39.2554 22.9582 39.2554C21.1674 39.2554 19.7023 39.2422 19.7023 39.226C19.7023 39.2099 19.9105 38.7661 20.165 38.2398C20.643 37.2513 20.8364 36.7627 21.5724 34.6844C23.1642 30.1889 24.3991 28.2722 27.2268 25.9079C28.5575 24.7954 29.9296 23.7163 31.0892 22.4193C31.2832 22.2023 31.4699 21.9786 31.6383 21.7412C32.0554 21.1534 32.421 20.4386 32.6381 19.7815C32.7938 19.31 32.8141 19.1563 32.8157 18.4352C32.8168 17.9515 32.7864 17.5375 32.6156 17.0849L32.615 17.0834C32.4937 16.7621 32.4355 16.608 32.4596 16.468Z" fill="#4600E9"/>
<path d="M35.4806 11.7898C34.5168 12.1906 33.8789 12.8688 33.7196 13.662C33.6272 14.1221 33.6874 14.459 33.862 14.459C34.2696 14.459 35.2964 13.68 35.648 13.104C35.8329 12.8012 36.0441 12.1345 36.0441 11.8538C36.0441 11.5954 35.9686 11.5868 35.4806 11.7898Z" fill="#4600E9"/>
<path d="M27.6877 8.39297C26.9025 9.3224 26.9073 11.2161 27.6972 12.139L27.9042 12.3809C27.9144 12.3928 27.9194 12.4082 27.9181 12.4238L27.8767 12.9126C27.8233 13.5444 27.6537 14.3466 27.4356 14.999C27.0487 16.1565 26.0544 17.8851 24.973 19.2805C24.3883 20.035 22.9928 21.7331 22.7155 22.0332C22.6915 22.0592 22.6483 22.1039 22.6269 22.132L22.0288 22.917L21.6569 23.4939C21.4523 23.8111 21.2458 24.1463 21.198 24.2387L21.1521 24.3275C21.1327 24.3649 21.0814 24.3702 21.0548 24.3375L20.7041 23.9061C20.2561 23.3549 19.6415 22.7899 18.8226 22.1763L18.3049 21.7883C18.2935 21.7798 18.2857 21.7675 18.2827 21.7536L17.9882 20.3557C17.4484 17.7938 17.376 17.4994 17.208 17.1829C16.9896 16.7711 15.5457 15.3292 14.6874 14.6656L14.0422 14.1669C14.0306 14.1578 14.0227 14.1447 14.0203 14.1301L13.9503 13.7062C13.8548 13.1273 13.645 12.723 13.2289 12.3149C12.9024 11.9948 11.9055 11.3402 11.8418 11.4039C11.8243 11.4214 11.7795 11.6087 11.7423 11.8202C11.555 12.8834 12.1707 14.0341 13.2033 14.5507C13.4467 14.6725 13.7022 14.7721 13.7713 14.7721C13.8404 14.7721 14.0972 14.9334 14.342 15.1305C15.0282 15.683 16.508 17.1549 16.643 17.4192C16.7094 17.5492 16.8319 17.986 16.9151 18.3898C16.9984 18.7936 17.1658 19.5592 17.287 20.091C17.4082 20.623 17.4959 21.0697 17.4818 21.0838C17.4358 21.1297 16.035 20.055 15.5744 19.6205C14.9622 19.043 14.4493 18.2615 14.2297 17.5718C14.061 17.0419 13.8659 16.9475 13.4498 16.588C13.1708 16.3469 12.9156 16.1497 12.8826 16.1497C12.7857 16.1497 12.7207 16.6919 12.7252 17.4646C12.732 18.6236 13.0383 19.5275 13.8648 20.8274C13.945 20.9535 13.9056 20.9454 13.4075 20.7335C12.6668 20.4183 11.5876 19.5488 11.5266 19.2179C11.4756 18.9419 11.2515 18.5484 11.0204 18.3292C10.7915 18.112 10.2357 17.8586 9.81207 17.7782C9.3066 17.6824 8.18164 17.6951 8.18164 17.7968C8.18164 18.0035 8.53659 18.5544 8.86668 18.86C9.3858 19.3407 10.1401 19.6562 10.77 19.6562C10.9849 19.6562 11.0666 19.7047 11.4308 20.0483C12.1389 20.7163 12.6041 21.0344 13.3364 21.3517C14.5796 21.8901 14.8318 22.0513 15.3148 22.6158C15.5553 22.8968 15.7415 23.1372 15.7287 23.1501L16.4042 23.8829L16.8171 24.3525C18.9795 26.8119 20.3581 28.9308 20.9263 30.6679C20.9842 30.845 21.0514 30.9899 21.0757 30.9899C21.0999 30.9899 21.2157 30.7716 21.3328 30.5047C21.8037 29.4318 22.671 28.0042 23.2285 27.3841C23.4676 27.1181 23.5305 26.9873 23.6685 26.4688C24.0716 24.9542 24.6988 23.5955 25.851 21.7412C26.2791 21.0522 26.3212 21.008 28.2057 19.2678C30.7386 16.9289 30.9722 16.7044 31.1924 16.398C31.2953 16.2547 31.5303 15.9782 31.7146 15.7836C32.5194 14.9331 32.9135 13.9724 32.9135 12.8605C32.9135 12.2533 32.8 11.7469 32.6117 11.5143L32.5424 11.4287C32.5196 11.4006 32.477 11.3997 32.4531 11.4268L32.2019 11.7116C31.2079 12.8389 30.7958 14.0096 30.967 15.2197L31.0434 15.7593C31.046 15.777 31.0402 15.795 31.0277 15.808L30.8065 16.0383C30.674 16.1763 30.0302 16.7758 29.3759 17.3706C28.7216 17.9653 27.9831 18.6497 27.7348 18.8914L27.5319 19.0888C27.4847 19.1348 27.4093 19.0796 27.4389 19.0207L27.5237 18.8517C28.5876 16.732 28.9738 14.7737 28.6895 12.9409C28.5802 12.2362 28.5802 12.236 28.7181 11.8917C28.9245 11.3765 28.9515 10.72 28.7921 10.0897C28.6583 9.56053 28.2522 8.66567 28.0054 8.35615L27.9107 8.23733C27.8877 8.2085 27.8441 8.20788 27.8203 8.23604L27.6877 8.39297Z" fill="#4600E9"/>
<path d="M21.5117 37.438H24.4291L24.7532 38.4317H21.1875L21.5117 37.438Z" fill="white"/>
<path d="M22.0126 36.0356H24.1599L24.3746 36.6786H21.7441L22.0126 36.0356Z" fill="white"/>
<path d="M22.5146 34.749H24.0957L24.3427 35.2751H22.2676L22.5146 34.749Z" fill="white"/>
<path d="M22.9709 33.5508H24.2848L24.49 33.9892H22.7656L22.9709 33.5508Z" fill="white"/>
<path d="M23.4307 32.4692H24.4996L24.6666 32.7907H23.2637L23.4307 32.4692Z" fill="white"/>
<circle cx="27.6468" cy="38.6068" r="0.672229" fill="#4600E9"/>
<path d="M73.5802 8.45752H80.1993L70.1184 26.1398V34.9621H63.8797V26.1398L53.7988 8.45752H60.418L66.9991 20.4982L73.5802 8.45752Z" fill="white"/>
<path d="M88.234 35.3786C85.3429 35.3786 82.9463 34.4825 81.0442 32.6903C79.1422 30.8728 78.1912 28.5126 78.1912 25.6098C78.1912 22.7321 79.1295 20.3846 81.0062 18.5671C82.9082 16.7497 85.2541 15.8409 88.0438 15.8409C90.7827 15.8409 93.0525 16.6992 94.8531 18.4157C96.6537 20.1069 97.5541 22.3409 97.5541 25.1175C97.5541 25.6224 97.516 26.2534 97.4399 27.0107H84.3158C84.5187 28.1971 84.9625 29.0932 85.6472 29.699C86.3573 30.3048 87.2069 30.6078 88.196 30.6078C89.0329 30.6078 89.7556 30.4058 90.3643 30.0019C90.9729 29.5728 91.3534 29.0049 91.5055 28.2981L96.7932 29.699C96.286 31.567 95.2462 32.9805 93.6739 33.9398C92.1269 34.899 90.3136 35.3786 88.234 35.3786ZM84.506 23.2243H91.7338C91.5816 22.5428 91.1758 21.9496 90.5165 21.4448C89.8824 20.9147 89.0709 20.6496 88.0818 20.6496C86.3066 20.6496 85.1146 21.5079 84.506 23.2243Z" fill="white"/>
<path d="M117.78 30.1155C117.983 30.1155 118.275 30.0524 118.655 29.9262V35.0378C118.122 35.2397 117.374 35.3407 116.411 35.3407C113.976 35.3407 112.327 34.6592 111.465 33.2961C110.146 34.6592 108.257 35.3407 105.797 35.3407C103.87 35.3407 102.297 34.8359 101.08 33.8262C99.888 32.8165 99.292 31.4281 99.292 29.6612C99.292 28.0204 99.8373 26.6952 100.928 25.6855C102.018 24.6758 103.489 24.0826 105.341 23.9059L110.78 23.4137V23.035C110.78 22.303 110.527 21.7224 110.02 21.2933C109.512 20.8389 108.866 20.6118 108.08 20.6118C106.659 20.6118 105.81 21.2933 105.531 22.6564L100.091 21.8991C100.421 19.7788 101.359 18.239 102.906 17.2797C104.478 16.3205 106.355 15.8409 108.536 15.8409C111.123 15.8409 113.152 16.4594 114.623 17.6962C116.119 18.9079 116.867 20.637 116.867 22.8836V29.0932C116.867 29.7748 117.171 30.1155 117.78 30.1155ZM110.78 27.6165V27.2L107.205 27.6165C106.596 27.6923 106.114 27.8942 105.759 28.2223C105.404 28.5253 105.226 28.8913 105.226 29.3204C105.226 29.8252 105.442 30.2165 105.873 30.4942C106.33 30.7718 106.9 30.898 107.585 30.8728C108.498 30.8223 109.259 30.5194 109.867 29.9641C110.476 29.4087 110.78 28.6262 110.78 27.6165Z" fill="white"/>
<path d="M132.342 15.8409C134.473 15.8409 136.21 16.4594 137.554 17.6962C138.923 18.9331 139.608 20.6622 139.608 22.8836V34.9621H133.522V24.7389C133.522 23.603 133.243 22.7574 132.685 22.202C132.127 21.6214 131.366 21.3312 130.402 21.3312C129.438 21.3312 128.665 21.6341 128.082 22.2399C127.524 22.8457 127.245 23.7292 127.245 24.8903V34.9621H121.158V8.45752H127.245V17.772C128.487 16.4846 130.187 15.8409 132.342 15.8409Z" fill="white"/>
<path d="M155.4 16.2196H161.486V34.9621H155.4V33.4097C154.157 34.697 152.458 35.3407 150.302 35.3407C148.274 35.3407 146.549 34.697 145.129 33.4097C143.734 32.0971 143.037 30.267 143.037 27.9194V16.2196H149.123V26.5942C149.123 27.6796 149.402 28.5 149.96 29.0553C150.518 29.5854 151.279 29.8505 152.243 29.8505C153.206 29.8505 153.967 29.5476 154.525 28.9418C155.108 28.3359 155.4 27.4524 155.4 26.2913V16.2196Z" fill="white"/>
<path d="M176.558 15.8409C179.145 15.8409 181.339 16.7623 183.139 18.605C184.94 20.4224 185.84 22.7574 185.84 25.6098C185.84 28.4117 184.953 30.734 183.177 32.5767C181.402 34.4194 179.208 35.3407 176.596 35.3407C174.364 35.3407 172.538 34.6592 171.118 33.2961V34.9621H165.032V8.45752H171.118V17.8477C172.513 16.5099 174.326 15.8409 176.558 15.8409ZM175.341 30.0777C176.507 30.0777 177.497 29.6738 178.308 28.866C179.12 28.033 179.525 26.9476 179.525 25.6098C179.525 24.2467 179.12 23.1612 178.308 22.3535C177.522 21.5205 176.533 21.104 175.341 21.104C174.124 21.104 173.109 21.5205 172.298 22.3535C171.511 23.1612 171.118 24.2467 171.118 25.6098C171.118 26.9476 171.511 28.033 172.298 28.866C173.109 29.6738 174.124 30.0777 175.341 30.0777Z" fill="white"/>
</svg>
